Another tech n9ne video brought to you by EzPimpinYa


General 
Complete name : C:Documents and SettingsAMDJrDesktopTech.N9ne.K.O.D.Tour.Live.In.Kansas.City.2010.DVDrip-TAINT.avi 
Format : AVI 
Format/Info : Audio Video Interleave 
File size : 885 MiB 
Duration : 1h 28mn 
Overall bit rate : 1 398 Kbps 
Movie name : KOD_TOUR.Title2.DVDRip 
Writing application : Lavf52.33.0 
Original source form/Name : KOD_TOUR 

Video 
ID : 0 
Format : AVC 
Format/Info : Advanced Video Codec 
Format profile : Baseline@L1.3 
Format settings, CABAC : No 
Format settings, ReFrames : 1 frame 
Codec ID : H264 
Duration : 1h 28mn 
Bit rate : 1 195 Kbps 
Nominal bit rate : 1 012 Kbps 
Width : 704 pixels 
Height : 400 pixels 
Display aspect ratio : 16:9 
Frame rate : 23.976 fps 
Resolution : 8 bits 
Colorimetry : 4:2:0 
Scan type : Progressive 
Bits/(Pixel*Frame) : 0.177 
Stream size : 756 MiB (85%) 
Writing library : x264 core 67 
Encoding settings : cabac=0 / ref=1 / deblock=0:0:0 / analyse=0x1:0 / me=dia / subme=8 / psy_rd=1.0:0.0 / mixed_ref=0 / me_range=4 / chroma_me=1 / trellis=0 / 8x8dct=0 / cqm=0 / deadzone=21,11 / chroma_qp_offset=-2 / threads=8 / nr=0 / decimate=1 / mbaff=0 / bframes=0 / keyint=250 / keyint_min=25 / scenecut=0 / rc=abr / bitrate=1012 / ratetol=8.1 / qcomp=0.50 / qpmin=10 / qpmax=31 / qpstep=3 / ip_ratio=1.25 / aq=1:1.00:10.00 

Audio 
ID : 1 
Format : AC-3 
Format/Info : Audio Coding 3 
Format_Settings_ModeExtension : CM (complete main) 
Codec ID : 2000 
Duration : 1h 28mn 
Bit rate mode : Constant 
Bit rate : 192 Kbps 
Channel(s) : 2 channels 
Channel positions : Front: L R 
Sampling rate : 48.0 KHz 
Stream size : 122 MiB (14%) 
Alignment : Aligned on interleaves 
Interleave, duration : 32 ms (0.77 video frame) 
Interleave, preload duration : 32 ms 
